<?xml version="1.0" encoding="utf-8"?><!-- Uploaded to: SVG Repo, www.svgrepo.com, Generator: SVG Repo Mixer Tools -->
<svg width="800px" height="800px" viewBox="0 -0.5 25 25" fill="none" xmlns="http://www.w3.org/2000/svg">
<path d="M7 12.5538H6.25C6.25 12.5713 6.25061 12.5888 6.25183 12.6062L7 12.5538ZM7.782 13.2398V12.4898C7.76683 12.4898 7.75167 12.4903 7.73653 12.4912L7.782 13.2398ZM17.217 13.2398L17.3055 12.4951C17.2761 12.4916 17.2466 12.4898 17.217 12.4898V13.2398ZM17.8805 12.9231L18.5153 13.3225V13.3225L17.8805 12.9231ZM17.879 12.1878L18.5121 11.7858C18.5046 11.7739 18.4967 11.7622 18.4885 11.7508L17.879 12.1878ZM15.943 9.48782L16.5526 9.05075L16.5467 9.04282L15.943 9.48782ZM15.943 8.75682L16.5468 9.20187L16.5525 9.19386L15.943 8.75682ZM17.879 6.05682L18.4885 6.49386C18.4967 6.48242 18.5046 6.47075 18.5121 6.45887L17.879 6.05682ZM17.8805 5.32159L18.5153 4.92214L18.5153 4.92214L17.8805 5.32159ZM17.217 5.00482V5.75482C17.2466 5.75482 17.2761 5.75307 17.3055 5.74958L17.217 5.00482ZM7.782 5.00482L7.73653 5.75344C7.75167 5.75436 7.76683 5.75482 7.782 5.75482V5.00482ZM7 5.69082L6.25183 5.63841C6.25061 5.65586 6.25 5.67334 6.25 5.69082H7ZM7.75 12.5538C7.75 12.1396 7.41421 11.8038 7 11.8038C6.58579 11.8038 6.25 12.1396 6.25 12.5538H7.75ZM6.25 19.0048C6.25 19.419 6.58579 19.7548 7 19.7548C7.41421 19.7548 7.75 19.419 7.75 19.0048H6.25ZM6.25183 12.6062C6.30892 13.4212 7.01201 14.038 7.82747 13.9884L7.73653 12.4912C7.73632 12.4912 7.73688 12.4912 7.73797 12.4913C7.73901 12.4915 7.74008 12.4917 7.74107 12.4921C7.74295 12.4927 7.74396 12.4935 7.74445 12.4939C7.74494 12.4943 7.74581 12.4952 7.7467 12.497C7.74718 12.498 7.74758 12.499 7.74786 12.5C7.74815 12.5011 7.74818 12.5016 7.74817 12.5014L6.25183 12.6062ZM7.782 13.9898H17.217V12.4898H7.782V13.9898ZM17.1285 13.9846C17.6798 14.0501 18.2196 13.7924 18.5153 13.3225L17.2457 12.5236C17.2585 12.5034 17.2818 12.4922 17.3055 12.4951L17.1285 13.9846ZM18.5153 13.3225C18.811 12.8526 18.8098 12.2545 18.5121 11.7858L17.2459 12.5899C17.233 12.5697 17.233 12.5439 17.2457 12.5236L18.5153 13.3225ZM18.4885 11.7508L16.5525 9.05079L15.3335 9.92486L17.2695 12.6249L18.4885 11.7508ZM16.5467 9.04282C16.5816 9.09009 16.5816 9.15455 16.5467 9.20183L15.3393 8.31182C14.984 8.79376 14.984 9.45088 15.3393 9.93283L16.5467 9.04282ZM16.5525 9.19386L18.4885 6.49386L17.2695 5.61979L15.3335 8.31979L16.5525 9.19386ZM18.5121 6.45887C18.8098 5.99018 18.811 5.39204 18.5153 4.92214L17.2457 5.72104C17.233 5.70078 17.233 5.67499 17.2459 5.65478L18.5121 6.45887ZM18.5153 4.92214C18.2196 4.45224 17.6798 4.19454 17.1285 4.26007L17.3055 5.74958C17.2818 5.75241 17.2585 5.7413 17.2457 5.72104L18.5153 4.92214ZM17.217 4.25482H7.782V5.75482H17.217V4.25482ZM7.82747 4.2562C7.01201 4.20667 6.30892 4.82344 6.25183 5.63841L7.74817 5.74323C7.74818 5.74303 7.74815 5.74359 7.74786 5.74465C7.74758 5.74566 7.74718 5.74669 7.7467 5.74762C7.74581 5.7494 7.74494 5.7503 7.74445 5.75073C7.74396 5.75116 7.74295 5.75191 7.74107 5.75257C7.74008 5.75291 7.73901 5.75317 7.73797 5.75332C7.73688 5.75347 7.73632 5.75343 7.73653 5.75344L7.82747 4.2562ZM6.25 5.69082V12.5538H7.75V5.69082H6.25ZM6.25 12.5538V16.2987H7.75V12.5538H6.25ZM6.25 16.2987V19.0048H7.75V16.2987H6.25Z" fill="#000000"/>
</svg>