<?xml version="1.0" encoding="UTF-8"?>
<svg id="Capa_1" data-name="Capa 1" xmlns="http://www.w3.org/2000/svg" viewBox="0 0 650.07 250.78">
  <defs>
    <style>
      .cls-1 {
        stroke-width: 0px;
      }

      .cls-2 {
        stroke: #000;
        stroke-miterlimit: 10;
        stroke-width: 6px;
      }
    </style>
  </defs>
  <g>
    <path class="cls-1" d="m0,182.37v-.38c0-37.24,28.5-68.78,68.59-68.78,19.95,0,33.25,4.75,45.41,13.49,2.28,1.71,4.75,4.94,4.75,9.5,0,6.27-5.13,11.59-11.59,11.59-3.04,0-5.32-1.33-7.22-2.66-8.55-6.27-17.86-10.45-32.3-10.45-24.51,0-43.13,21.47-43.13,46.93v.38c0,27.36,18.05,47.5,45.22,47.5,12.54,0,23.94-3.99,32.11-10.07v-24.89h-26.22c-5.7,0-10.45-4.37-10.45-10.07s4.75-10.26,10.45-10.26h37.05c6.65,0,11.78,5.13,11.78,11.78v35.53c0,6.65-2.66,11.4-8.17,14.82-11.4,7.6-27.36,14.44-47.31,14.44C27.36,250.78,0,221.13,0,182.37Z"/>
    <path class="cls-1" d="m147.63,120.24c0-6.27,4.94-11.4,11.4-11.4s11.59,5.13,11.59,11.4v117.8c0,6.46-5.13,11.4-11.59,11.4s-11.4-4.94-11.4-11.4v-117.8Z"/>
    <path class="cls-1" d="m189.24,198.9v-.38c0-28.69,22.8-52.44,53.58-52.44s53.39,23.37,53.39,52.06v.38c0,28.5-22.8,52.25-53.77,52.25s-53.2-23.37-53.2-51.87Zm83.98,0v-.38c0-17.67-12.73-32.3-30.78-32.3s-30.21,14.44-30.21,31.92v.38c0,17.48,12.73,32.11,30.59,32.11s30.4-14.44,30.4-31.73Z"/>
    <path class="cls-1" d="m318.44,220.75v-52.82h-3.8c-5.51,0-9.88-4.37-9.88-9.88s4.37-9.88,9.88-9.88h3.8v-17.1c0-6.27,5.13-11.4,11.59-11.4s11.4,5.13,11.4,11.4v17.1h18.05c5.51,0,10.07,4.37,10.07,9.88s-4.56,9.88-10.07,9.88h-18.05v49.21c0,8.93,4.56,12.54,12.35,12.54,2.66,0,4.94-.57,5.7-.57,5.13,0,9.69,4.18,9.69,9.5,0,4.18-2.85,7.6-6.08,8.93-4.94,1.71-9.69,2.66-15.77,2.66-16.91,0-28.88-7.41-28.88-29.45Z"/>
    <path class="cls-1" d="m377.53,198.9v-.38c0-28.69,22.8-52.44,53.58-52.44s53.39,23.37,53.39,52.06v.38c0,28.5-22.8,52.25-53.77,52.25s-53.2-23.37-53.2-51.87Zm83.98,0v-.38c0-17.67-12.73-32.3-30.78-32.3s-30.21,14.44-30.21,31.92v.38c0,17.48,12.73,32.11,30.59,32.11s30.4-14.44,30.4-31.73Z"/>
    <path class="cls-1" d="m501.98,158.62c0-6.46,4.94-11.59,11.4-11.59s11.59,5.13,11.59,11.59v4.94c6.46-9.31,15.77-17.48,31.35-17.48,22.61,0,35.72,15.2,35.72,38.38v53.58c0,6.46-4.94,11.4-11.4,11.4s-11.59-4.94-11.59-11.4v-46.55c0-15.58-7.79-24.51-21.47-24.51s-22.61,9.31-22.61,24.89v46.17c0,6.46-5.13,11.4-11.59,11.4s-11.4-4.94-11.4-11.4v-79.42Z"/>
  </g>
  <path class="cls-2" d="m641.8,149.11c-.09.56-.26,1.11-.5,1.62-.4,1.31-1.3,2.41-2.5,3.05-1.69.87-3.72.74-5.29-.34l-79.23-57.73c-2.29-1.69-2.77-4.92-1.08-7.2,0,0,.01-.01.02-.02,18.77-25.5,48.15-41.03,79.79-42.19,2.84-.12,5.24,2.09,5.36,4.94,0,.03,0,.06,0,.06.02.51.01.89.01.91,0,.48-.55,1.87-.83,2.25-1.47,2.02-8.55,2.4-8.55,2.4-10.17.31-27.12,5.92-35.54,10.33-14.46,7.57-23.74,17.26-28.74,23.33l65.98,48.26"/>
  <path class="cls-2" d="m646.56,153.94c-.4,1.31-1.3,2.41-2.5,3.05-1.69.87-3.72.74-5.29-.34l-61.6-44.97c-1.1-.81-1.83-2.03-2.03-3.38-.09-1.36.33-2.71,1.17-3.79,14.88-20.13,38.1-32.41,63.11-33.37,2.84-.12,5.24,2.09,5.36,4.94,0,.02,0,.04,0,.06l2.29,76.17c-.09.56-.26,1.11-.5,1.62Zm-59.15-47.5l48.75,35.62-1.99-60.34c-18.17,1.98-34.89,10.82-46.75,24.72Z"/>
</svg>