<svg width="651" height="251" viewBox="0 0 651 251" fill="none" xmlns="http://www.w3.org/2000/svg">
<g clip-path="url(#clip0_124_2)">
<path d="M0 182.37V181.99C0 144.75 28.5 113.21 68.59 113.21C88.54 113.21 101.84 117.96 114 126.7C116.28 128.41 118.75 131.64 118.75 136.2C118.75 142.47 113.62 147.79 107.16 147.79C104.12 147.79 101.84 146.46 99.94 145.13C91.39 138.86 82.08 134.68 67.64 134.68C43.13 134.68 24.51 156.15 24.51 181.61V181.99C24.51 209.35 42.56 229.49 69.73 229.49C82.27 229.49 93.67 225.5 101.84 219.42V194.53H75.62C69.92 194.53 65.17 190.16 65.17 184.46C65.17 178.76 69.92 174.2 75.62 174.2H112.67C119.32 174.2 124.45 179.33 124.45 185.98V221.51C124.45 228.16 121.79 232.91 116.28 236.33C104.88 243.93 88.92 250.77 68.97 250.77C27.36 250.78 0 221.13 0 182.37Z" fill="#09827E"/>
<path d="M147.63 120.24C147.63 113.97 152.57 108.84 159.03 108.84C165.49 108.84 170.62 113.97 170.62 120.24V238.04C170.62 244.5 165.49 249.44 159.03 249.44C152.57 249.44 147.63 244.5 147.63 238.04V120.24Z" fill="#09827E"/>
<path d="M189.24 198.9V198.52C189.24 169.83 212.04 146.08 242.82 146.08C273.6 146.08 296.21 169.45 296.21 198.14V198.52C296.21 227.02 273.41 250.77 242.44 250.77C211.47 250.77 189.24 227.4 189.24 198.9ZM273.22 198.9V198.52C273.22 180.85 260.49 166.22 242.44 166.22C224.39 166.22 212.23 180.66 212.23 198.14V198.52C212.23 216 224.96 230.63 242.82 230.63C260.68 230.63 273.22 216.19 273.22 198.9Z" fill="#09827E"/>
<path d="M318.44 220.75V167.93H314.64C309.13 167.93 304.76 163.56 304.76 158.05C304.76 152.54 309.13 148.17 314.64 148.17H318.44V131.07C318.44 124.8 323.57 119.67 330.03 119.67C336.49 119.67 341.43 124.8 341.43 131.07V148.17H359.48C364.99 148.17 369.55 152.54 369.55 158.05C369.55 163.56 364.99 167.93 359.48 167.93H341.43V217.14C341.43 226.07 345.99 229.68 353.78 229.68C356.44 229.68 358.72 229.11 359.48 229.11C364.61 229.11 369.17 233.29 369.17 238.61C369.17 242.79 366.32 246.21 363.09 247.54C358.15 249.25 353.4 250.2 347.32 250.2C330.41 250.2 318.44 242.79 318.44 220.75Z" fill="#09827E"/>
<path d="M377.53 198.9V198.52C377.53 169.83 400.33 146.08 431.11 146.08C461.89 146.08 484.5 169.45 484.5 198.14V198.52C484.5 227.02 461.7 250.77 430.73 250.77C399.76 250.77 377.53 227.4 377.53 198.9ZM461.51 198.9V198.52C461.51 180.85 448.78 166.22 430.73 166.22C412.68 166.22 400.52 180.66 400.52 198.14V198.52C400.52 216 413.25 230.63 431.11 230.63C448.97 230.63 461.51 216.19 461.51 198.9Z" fill="#09827E"/>
<path d="M501.98 158.62C501.98 152.16 506.92 147.03 513.38 147.03C519.84 147.03 524.97 152.16 524.97 158.62V163.56C531.43 154.25 540.74 146.08 556.32 146.08C578.93 146.08 592.04 161.28 592.04 184.46V238.04C592.04 244.5 587.1 249.44 580.64 249.44C574.18 249.44 569.05 244.5 569.05 238.04V191.49C569.05 175.91 561.26 166.98 547.58 166.98C533.9 166.98 524.97 176.29 524.97 191.87V238.04C524.97 244.5 519.84 249.44 513.38 249.44C506.92 249.44 501.98 244.5 501.98 238.04V158.62Z" fill="#09827E"/>
<path d="M466.241 118.253C465.676 118.305 465.101 118.276 464.547 118.169C463.179 118.106 461.891 117.506 460.974 116.501C459.713 115.079 459.337 113.08 459.995 111.292L496.337 20.2455C497.408 17.6087 500.419 16.3448 503.046 17.4184C503.046 17.4184 503.058 17.4256 503.07 17.4328C532.42 29.3132 554.734 53.9398 563.683 84.31C564.502 87.0321 562.954 89.9041 560.222 90.7252C560.193 90.7326 560.164 90.7401 560.164 90.7401C559.675 90.8856 559.304 90.9699 559.285 90.9748C558.82 91.0935 557.337 90.9044 556.899 90.727C554.579 89.8023 552.459 83.0362 552.459 83.0362C549.644 73.2588 540.016 58.2228 533.661 51.155C522.75 39.0164 511.066 32.4211 503.948 29.0776L473.505 104.943" fill="#09827E"/>
<path d="M466.241 118.253C465.676 118.305 465.101 118.276 464.547 118.169C463.179 118.106 461.891 117.506 460.974 116.501C459.713 115.079 459.337 113.08 459.995 111.292L496.337 20.2455C497.408 17.6087 500.419 16.3448 503.046 17.4184C503.046 17.4184 503.058 17.4256 503.07 17.4328C532.42 29.3132 554.734 53.9398 563.683 84.31C564.502 87.0321 562.954 89.9041 560.222 90.7252C560.193 90.7326 560.164 90.7401 560.164 90.7401C559.675 90.8856 559.304 90.9699 559.285 90.9748C558.82 91.0935 557.337 90.9044 556.899 90.727C554.579 89.8023 552.459 83.0362 552.459 83.0362C549.644 73.2588 540.016 58.2228 533.661 51.155C522.75 39.0164 511.066 32.4211 503.948 29.0776L473.505 104.943" stroke="#09827E" stroke-width="6" stroke-miterlimit="10"/>
<path d="M462.738 124.06C461.37 123.996 460.081 123.396 459.164 122.392C457.903 120.97 457.527 118.971 458.185 117.182L486.524 46.3741C487.037 45.1079 488.038 44.0989 489.297 43.5712C490.592 43.1477 492.004 43.2208 493.258 43.7676C516.443 53.2069 534.084 72.6685 541.2 96.6642C542.019 99.3863 540.471 102.258 537.739 103.079C537.72 103.084 537.7 103.089 537.681 103.094L464.443 124.151C463.878 124.202 463.304 124.174 462.75 124.067L462.738 124.06ZM494.134 55L482.905 83.0225L471.677 111.045L529.65 94.1938C523.238 77.078 510.537 63.0636 494.136 55.0097L494.134 55Z" fill="#09827E" stroke="#09827E" stroke-width="6" stroke-miterlimit="10"/>
</g>
<defs>
<clipPath id="clip0_124_2">
<rect width="650.07" height="250.78" fill="white"/>
</clipPath>
</defs>
</svg>
